HIERARCHY
ROOT Hips
{
	OFFSET 0.00000 0.00000 0.00000
	CHANNELS 6 Xposition Yposition Zposition Zrotation Yrotation Xrotation 
	JOINT LHipJoint
	{
		OFFSET 0 0 0
		CHANNELS 3 Zrotation Yrotation Xrotation
		JOINT LeftHip
		{
			OFFSET 1.58161 -1.81893 0.78828
			CHANNELS 3 Zrotation Yrotation Xrotation
			JOINT LeftKnee
			{
				OFFSET 2.53374 -6.96141 0.00000
				CHANNELS 3 Zrotation Yrotation Xrotation
				JOINT LeftAnkle
				{
					OFFSET 2.63509 -7.23986 0.00000
					CHANNELS 3 Zrotation Yrotation Xrotation
					JOINT LeftToe
					{
						OFFSET 0.14115 -0.38781 2.05350
						CHANNELS 3 Zrotation Yrotation Xrotation
						End Site
						{
							OFFSET 0.00000 -0.00000 1.05543
						}
					}
				}
			}
		}
	}
	JOINT RHipJoint
	{
		OFFSET 0 0 0
		CHANNELS 3 Zrotation Yrotation Xrotation
		JOINT RightHip
		{
			OFFSET -1.11138 -1.81893 0.78828
			CHANNELS 3 Zrotation Yrotation Xrotation
			JOINT RightKnee
			{
				OFFSET -2.58392 -7.09926 0.00000
				CHANNELS 3 Zrotation Yrotation Xrotation
				JOINT RightAnkle
				{
					OFFSET -2.66423 -7.31992 0.00000
					CHANNELS 3 Zrotation Yrotation Xrotation
					JOINT RightToe
					{
						OFFSET -0.18831 -0.51739 2.12114
						CHANNELS 3 Zrotation Yrotation Xrotation
						End Site
						{
							OFFSET -0.00000 -0.00000 1.09845
						}
					}
				}
			}
		}
	}
	JOINT lowerback
	{
		OFFSET 0 0 0
		CHANNELS 3 Zrotation Yrotation Xrotation
		JOINT Chest
		{
			OFFSET -0.01511 1.97958 -0.08829
			CHANNELS 3 Zrotation Yrotation Xrotation
			JOINT Chest2
			{
				OFFSET 0.08344 1.97334 -0.04330
				CHANNELS 3 Zrotation Yrotation Xrotation
				JOINT lowerneck
				{
					OFFSET 0 0 0
					CHANNELS 3 Zrotation Yrotation Xrotation
					JOINT Neck
					{
						OFFSET 0.00559 1.76246 0.31246
						CHANNELS 3 Zrotation Yrotation Xrotation
						JOINT Head
						{
							OFFSET -0.07011 1.80354 -0.30524
							CHANNELS 3 Zrotation Yrotation Xrotation
							End Site
							{
								OFFSET -0.02385 1.83547 -0.13906
							}
						}
					}
				}
				JOINT LeftCollar
				{
					OFFSET 0 0 0
					CHANNELS 3 Zrotation Yrotation Xrotation
					JOINT LeftShoulder
					{
						OFFSET 3.20667 1.30156 -0.60240
CHANNELS 3 Zrotation Xrotation Yrotation
						JOINT LeftElbow
						{
OFFSET 0 -4.956630 0.000000
CHANNELS 3 Zrotation Xrotation Yrotation
							JOINT LeftWrist
							{
OFFSET 0 -3.381770 0.000000
CHANNELS 3 Zrotation Xrotation Yrotation
								JOINT lhand
								{
									OFFSET 0 0 0
CHANNELS 3 Zrotation Xrotation Yrotation
									JOINT LFingers
									{
OFFSET 0 -0.662910 0.000000
CHANNELS 3 Zrotation Xrotation Yrotation
										End Site
										{
OFFSET 0 -0.534450 0.000000
										}
									}
								}
								JOINT LThumb
								{
OFFSET 0 0.000000 0.000000
CHANNELS 3 Zrotation Xrotation Yrotation
									End Site
									{
OFFSET 0 -0.542610 0.542610
									}
								}
							}
						}
					}
				}
				JOINT RightCollar
				{
					OFFSET 0 0 0
					CHANNELS 3 Zrotation Yrotation Xrotation
					JOINT RightShoulder
					{
						OFFSET -3.06877 1.34672 -0.60964
CHANNELS 3 Zrotation Xrotation Yrotation
						JOINT RightElbow
						{
OFFSET 0 -5.083650 0.000000
CHANNELS 3 Zrotation Xrotation Yrotation
							JOINT RightWrist
							{
OFFSET 0 -3.359840 0.000000
CHANNELS 3 Zrotation Xrotation Yrotation
								JOINT rhand
								{
									OFFSET 0 0 0
CHANNELS 3 Zrotation Xrotation Yrotation
									JOINT RFingers
									{
OFFSET 0 -0.820760 0.000000
CHANNELS 3 Zrotation Xrotation Yrotation
										End Site
										{
OFFSET 0 -0.661720 0.000000
										}
									}
								}
								JOINT RThumb
								{
OFFSET 0 0.000000 0.000000
CHANNELS 3 Zrotation Xrotation Yrotation
									End Site
									{
OFFSET 0 -0.671820 0.671820
									}
								}
							}
						}
					}
				}
			}
		}
	}
}
MOTION
Frames: 16
Frame Time: .0083333
2.2096 10.3023 -1.9862 -4.2975 -7.0800 12.8683 0.0000 0.0000 0.0000 -0.3313 -0.0991 -96.6568 32.6213 15.6427 129.7076 1.1557 -23.5150 -23.8204 0.6626 -5.2059 -14.4969 0.0000 0.0000 0.0000 15.5458 -42.8304 -93.3921 -34.7885 -13.6181 138.2715 -0.6147 25.3173 -21.6552 -0.5704 4.8370 -13.4441 4.2291 7.9456 41.1069 6.6009 11.0757 17.4051 1.0044 5.1425 -0.6851 0.9747 -6.7769 -6.7327 -13.1048 -6.0599 26.8466 -5.2209 -3.8534 8.9997 -0.0000 0.0000 0.0000 18.2152 -2.999 -68.7332 106.1023 -58.9973 73.898 56.9962 55.2787 -18.1391 0.0 0.0 0.0 -7.1250 0.0 0.0 34.2642 57.5209 -11.3932 -0.0000 0.0000 0.0000 -22.712 -48.6052 17.267 -19.5902 -30.1455 -5.324 -49.9248 -23.0541 -20.0104 0.0 0.0 0.0 7.1250 0.0 -0.0 -13.1192 1.1491 -13.2066
2.2130 10.2979 -1.9840 -4.2957 -7.0818 12.8178 0.0000 0.0000 0.0000 -0.3497 -0.1132 -96.6488 32.6391 15.6284 129.7735 1.1413 -23.4782 -23.7217 0.6169 -5.0269 -13.9852 0.0000 0.0000 0.0000 15.4984 -42.9923 -93.3780 -34.7970 -13.6089 138.3073 -0.6152 25.3697 -21.6885 -0.5690 4.8308 -13.4267 4.2405 7.9374 41.1741 6.5994 11.0741 17.3836 0.9909 5.1404 -0.7261 1.0002 -6.7695 -6.7833 -13.0681 -6.0609 26.8693 -5.2166 -3.8500 9.0174 -0.0000 0.0000 0.0000 18.2122 -3.0315 -68.7248 106.0866 -58.9993 73.8846 56.9666 55.3506 -18.2132 0.0 0.0 0.0 -7.1250 0.0 0.0 34.2801 57.6097 -11.4751 -0.0000 0.0000 0.0000 -22.5978 -48.5559 17.2795 -19.6107 -30.1704 -5.3343 -49.804 -22.8815 -19.9763 0.0 0.0 0.0 7.1250 0.0 -0.0 -13.0585 1.247 -13.1189
2.2157 10.2977 -1.9809 -4.3218 -7.1237 12.7153 0.0000 0.0000 0.0000 -0.3420 -0.0790 -96.5161 32.6519 15.6182 129.8211 1.1418 -23.4593 -23.7153 0.6148 -5.0183 -13.9608 0.0000 0.0000 0.0000 15.4241 -43.0706 -93.1825 -34.7937 -13.6124 138.2934 -0.6519 25.3303 -21.8790 -0.6006 4.9609 -13.7969 4.2331 7.9573 41.2494 6.6125 11.0955 17.4038 0.9971 5.1481 -0.7292 1.0719 -6.7532 -6.9059 -13.0931 -6.0419 26.8979 -5.2440 -3.8412 9.0476 -0.0000 -0.0000 0.0000 18.2165 -3.1029 -68.7049 106.1434 -58.992 73.9332 56.9063 55.2399 -18.1941 0.0 0.0 0.0 -7.1250 0.0 0.0 34.1702 57.563 -11.3925 -0.0000 -0.0000 0.0000 -22.4084 -48.4603 17.3261 -19.7306 -30.3164 -5.3947 -49.973 -23.2226 -20.2122 0.0 0.0 0.0 7.1250 0.0 -0.0 -13.0951 0.8612 -13.2493
2.2176 10.2920 -1.9783 -4.3391 -7.1893 12.6879 0.0000 0.0000 0.0000 -0.3200 -0.0450 -96.4921 32.6753 15.5993 129.9082 1.1781 -23.3554 -23.8732 0.6682 -5.2276 -14.5587 0.0000 0.0000 0.0000 15.3790 -43.0713 -93.1272 -34.8000 -13.6055 138.3203 -0.6910 25.2488 -22.0587 -0.6549 5.1761 -14.4115 4.1919 7.9893 41.2037 6.6179 11.1141 17.4348 1.0220 5.1559 -0.6899 1.1474 -6.7339 -7.0069 -13.1567 -6.0094 26.9372 -5.2841 -3.8289 9.0769 0.0000 0.0000 0.0000 18.2307 -3.1404 -68.664 106.2057 -58.984 73.9867 56.593 54.684 -17.9386 0.0 0.0 0.0 -7.1250 0.0 0.0 33.4786 57.1108 -10.7477 0.0000 0.0000 0.0000 -22.5183 -48.4543 17.6057 -19.7229 -30.3071 -5.3908 -50.0805 -23.6687 -20.2054 0.0 0.0 0.0 7.1250 0.0 -0.0 -13.1585 0.8225 -13.3261
2.2214 10.2786 -1.9781 -4.3256 -7.2005 12.7644 0.0000 0.0000 0.0000 -0.2958 -0.1139 -96.6839 32.7137 15.5683 130.0510 1.2192 -23.1884 -24.0296 0.7555 -5.5513 -15.4879 0.0000 0.0000 0.0000 15.3484 -43.0599 -93.3272 -34.8252 -13.5779 138.4277 -0.6747 25.2551 -21.9683 -0.6657 5.2178 -14.5307 4.1776 7.9835 41.0689 6.6039 11.0980 17.4298 1.0292 5.1511 -0.6563 1.1570 -6.7306 -7.0519 -13.1408 -6.0074 26.9698 -5.2845 -3.8273 9.0973 0.0000 0.0000 0.0000 18.2593 -3.1261 -68.6747 106.3175 -58.9696 74.0825 55.6865 53.3671 -17.5224 0.0 0.0 0.0 -7.1250 0.0 0.0 31.8123 56.2392 -9.4392 0.0000 0.0000 0.0000 -22.7505 -48.4963 17.8803 -19.6278 -30.1913 -5.3429 -50.0774 -24.1391 -20.1743 0.0 0.0 0.0 7.1250 0.0 -0.0 -13.1647 0.8649 -13.3227
2.2281 10.2632 -1.9793 -4.2782 -7.1630 12.8585 0.0000 0.0000 0.0000 -0.2752 -0.3108 -96.9625 32.7512 15.5379 130.1907 1.2046 -23.1238 -23.9171 0.7602 -5.5683 -15.5370 0.0000 0.0000 0.0000 15.3090 -43.1254 -93.6457 -34.8539 -13.5464 138.5500 -0.6086 25.3894 -21.6614 -0.6395 5.1163 -14.2405 4.1973 7.9266 40.8927 6.5732 11.0324 17.4205 1.0232 5.1267 -0.6058 1.1568 -6.7240 -7.1029 -13.1439 -5.9930 27.0195 -5.2905 -3.8230 9.1257 -0.0000 0.0000 0.0000 18.28 -3.1141 -68.7113 106.4911 -58.9471 74.2312 55.1365 52.448 -17.2907 0.0 0.0 0.0 -7.1250 0.0 0.0 30.8600 55.7417 -8.7301 -0.0000 0.0000 0.0000 -22.5734 -48.4987 17.7743 -19.6960 -30.2743 -5.3772 -49.8097 -23.7671 -20.1314 0.0 0.0 0.0 7.1250 0.0 -0.0 -13.0223 1.0397 -13.1295
2.2316 10.2580 -1.9798 -4.2585 -7.1904 12.7864 0.0000 0.0000 0.0000 -0.2798 -0.3425 -96.9232 32.7674 15.5246 130.2515 1.2062 -23.0791 -23.9058 0.7638 -5.5812 -15.5739 0.0000 0.0000 0.0000 15.1906 -43.2212 -93.6008 -34.8630 -13.5364 138.5888 -0.5818 25.4923 -21.5658 -0.6409 5.1218 -14.2563 4.1839 7.9090 40.9285 6.5618 11.0068 17.4245 1.0244 5.1137 -0.6113 1.1508 -6.6939 -7.1442 -13.1465 -5.9431 27.0890 -5.2935 -3.8028 9.1627 -0.0000 0.0000 0.0000 18.2725 -3.0829 -68.7009 106.6406 -58.9274 74.3593 55.2554 52.463 -17.2054 0.0 0.0 0.0 -7.1250 0.0 0.0 30.9697 55.6657 -8.7063 -0.0000 0.0000 0.0000 -22.3288 -48.4619 17.7264 -19.8105 -30.4134 -5.4351 -49.5647 -23.411 -20.0669 0.0 0.0 0.0 7.1250 0.0 -0.0 -12.8979 1.2317 -12.9525
2.2294 10.2643 -1.9799 -4.2974 -7.2857 12.5397 0.0000 0.0000 0.0000 -0.2761 -0.0933 -96.5480 32.7758 15.5178 130.2829 1.2409 -23.1356 -24.1278 0.8144 -5.7589 -16.0863 0.0000 0.0000 0.0000 15.0197 -43.2904 -93.1315 -34.8516 -13.5490 138.5401 -0.6081 25.4903 -21.7179 -0.6557 5.1795 -14.4214 4.1280 7.9637 41.2180 6.5934 11.0600 17.4343 1.0445 5.1271 -0.6999 1.0961 -6.6731 -7.1222 -13.0711 -5.9212 27.1104 -5.2568 -3.7904 9.1739 0.0000 0.0000 0.0000 18.2027 -3.0799 -68.6612 106.6950 -58.9202 74.4059 55.303 52.67 -17.2321 0.0 0.0 0.0 -7.1250 0.0 0.0 31.0555 55.7176 -8.7747 0.0000 0.0000 0.0000 -22.301 -48.4084 17.8729 -19.8726 -30.4886 -5.4666 -49.4038 -23.5873 -20.0591 0.0 0.0 0.0 7.1250 0.0 -0.0 -12.8074 1.3114 -12.8381
2.2268 10.2672 -1.9800 -4.3224 -7.3517 12.3716 0.0000 0.0000 0.0000 -0.2622 0.1021 -96.2844 32.7853 15.5101 130.3183 1.2489 -23.2891 -24.2425 0.8190 -5.7746 -16.1317 0.0000 0.0000 0.0000 14.9308 -43.3268 -92.8375 -34.8444 -13.5569 138.5092 -0.6442 25.4036 -21.8766 -0.6821 5.2807 -14.7108 4.0482 8.0154 41.3905 6.6263 11.0985 17.4452 1.0906 5.1349 -0.7579 1.1155 -6.6720 -7.0639 -13.0988 -5.9222 27.0619 -5.2637 -3.7901 9.1433 0.0000 0.0000 0.0000 18.1401 -3.1308 -68.634 106.6391 -58.9276 74.358 55.2959 52.9593 -17.4587 0.0 0.0 0.0 -7.1250 0.0 0.0 31.2032 56.0219 -9.0617 0.0000 0.0000 0.0000 -22.309 -48.394 18.0694 -19.8799 -30.4974 -5.4703 -49.4008 -23.9491 -20.0942 0.0 0.0 0.0 7.1250 0.0 -0.0 -12.7968 1.2666 -12.8373
2.2263 10.2633 -1.9792 -4.3925 -7.3681 12.2974 0.0000 0.0000 0.0000 -0.1833 0.2039 -96.2092 32.7999 15.4981 130.3729 1.2501 -23.3686 -24.2851 0.8158 -5.7636 -16.1000 0.0000 0.0000 0.0000 14.9445 -43.3566 -92.7104 -34.8467 -13.5544 138.5192 -0.6685 25.3606 -21.9928 -0.7026 5.3578 -14.9320 4.0578 8.0236 41.4300 6.6586 11.1135 17.4542 1.1117 5.1395 -0.7644 1.1476 -6.6767 -7.0496 -13.1546 -5.9210 27.0693 -5.2881 -3.7918 9.1393 0.0000 -0.0000 0.0000 18.1433 -3.1631 -68.6659 106.6212 -58.93 74.3427 55.337 52.9051 -17.5501 0.0 0.0 0.0 -7.1250 0.0 0.0 31.3266 56.1591 -9.2107 0.0000 -0.0000 0.0000 -22.3195 -48.3767 18.3208 -19.8493 -30.4603 -5.4547 -49.6764 -24.6138 -20.2 0.0 0.0 0.0 7.1250 0.0 -0.0 -12.9283 1.0077 -13.0371
2.2271 10.2575 -1.9781 -4.4437 -7.3818 12.2164 0.0000 0.0000 0.0000 -0.1141 0.2744 -96.1556 32.8248 15.4777 130.4660 1.2609 -23.4134 -24.3658 0.8200 -5.7779 -16.1414 0.0000 0.0000 0.0000 14.8999 -43.4190 -92.5735 -34.8535 -13.5469 138.5480 -0.6718 25.4039 -22.0362 -0.6997 5.3469 -14.9006 4.0978 8.0216 41.4949 6.6787 11.1275 17.4583 1.1044 5.1456 -0.7758 1.1014 -6.6899 -7.0961 -13.1094 -5.9301 27.1887 -5.2754 -3.7976 9.1938 0.0000 0.0000 0.0000 18.1606 -3.1898 -68.7385 106.7171 -58.9173 74.4248 55.4053 52.3936 -17.3516 0.0 0.0 0.0 -7.1250 0.0 0.0 31.2848 55.9137 -9.0037 0.0000 0.0000 0.0000 -22.3141 -48.3389 18.4288 -19.8443 -30.4543 -5.4522 -49.8476 -24.9582 -20.2532 0.0 0.0 0.0 7.1250 0.0 -0.0 -13.0129 0.8625 -13.1612
2.2306 10.2454 -1.9787 -4.4196 -7.3691 12.2678 0.0000 0.0000 0.0000 -0.0932 0.1605 -96.2777 32.8520 15.4553 130.5682 1.2575 -23.3826 -24.3329 0.8036 -5.7213 -15.9778 0.0000 0.0000 0.0000 14.8967 -43.4547 -92.7707 -34.8758 -13.5223 138.6434 -0.6598 25.4233 -21.9785 -0.6929 5.3214 -14.8275 4.1011 7.9944 41.3801 6.6594 11.0928 17.4556 1.1032 5.1332 -0.7413 1.0479 -6.6957 -7.0952 -13.0121 -5.9463 27.2513 -5.2379 -3.8009 9.2212 0.0000 0.0000 0.0000 18.1887 -3.2003 -68.7778 106.8784 -58.8957 74.5629 55.559 52.2188 -17.1584 0.0 0.0 0.0 -7.1250 0.0 0.0 31.3679 55.7031 -8.8648 0.0000 0.0000 0.0000 -22.2424 -48.3234 18.4559 -19.8620 -30.4757 -5.4612 -49.8495 -24.7587 -20.166 0.0 0.0 0.0 7.1250 0.0 -0.0 -13.0363 0.9767 -13.1592
2.2369 10.2297 -1.9811 -4.3974 -7.3224 12.4083 0.0000 0.0000 0.0000 -0.0539 -0.0726 -96.5387 32.8776 15.4341 130.6643 1.2458 -23.2407 -24.2030 0.7746 -5.6197 -15.6848 0.0000 0.0000 0.0000 14.9834 -43.4791 -93.1799 -34.9071 -13.4876 138.7776 -0.6441 25.4115 -21.8805 -0.7013 5.3527 -14.9174 4.1325 7.9390 41.1086 6.6371 11.0288 17.4711 1.1092 5.1126 -0.6361 1.0197 -6.6910 -7.0562 -12.9402 -5.9574 27.2043 -5.2040 -3.8007 9.2005 0.0000 0.0000 0.0000 18.2085 -3.1959 -68.7696 107.1563 -58.8581 74.8008 55.5538 52.3793 -17.1628 0.0 0.0 0.0 -7.1250 0.0 0.0 31.3636 55.7074 -8.8667 0.0000 0.0000 0.0000 -22.2441 -48.3305 18.5507 -19.8463 -30.4567 -5.4532 -49.881 -24.7349 -20.0954 0.0 0.0 0.0 7.1250 0.0 -0.0 -13.0724 1.056 -13.1789
2.2426 10.2188 -1.9815 -4.4190 -7.2628 12.4347 0.0000 0.0000 0.0000 0.0028 -0.2124 -96.6639 32.9023 15.4136 130.7573 1.2484 -23.1201 -24.1636 0.7747 -5.6200 -15.6856 0.0000 0.0000 0.0000 15.0505 -43.6295 -93.3596 -34.9263 -13.4663 138.8601 -0.6275 25.4594 -21.8121 -0.7053 5.3678 -14.9607 4.2061 7.8785 40.9610 6.6462 10.9765 17.5074 1.1163 5.0960 -0.5422 1.0118 -6.6865 -7.1611 -12.9711 -5.9332 27.2947 -5.2230 -3.7968 9.2539 -0.0000 0.0000 0.0000 18.1979 -3.2227 -68.7639 107.2004 -58.8521 74.8386 55.6417 52.6403 -17.213 0.0 0.0 0.0 -7.1250 0.0 0.0 31.5246 55.8049 -8.9968 -0.0000 0.0000 0.0000 -22.3101 -48.3602 18.6481 -19.7979 -30.3981 -5.4287 -49.9507 -25.0221 -20.1688 0.0 0.0 0.0 7.1250 0.0 -0.0 -13.0935 0.9283 -13.2317
2.2465 10.2099 -1.9796 -4.4926 -7.1928 12.3866 0.0000 0.0000 0.0000 0.0806 -0.2259 -96.6987 32.9273 15.3928 130.8513 1.2523 -23.0849 -24.1698 0.7987 -5.7042 -15.9286 0.0000 0.0000 0.0000 15.1090 -43.8425 -93.3450 -34.9388 -13.4523 138.9137 -0.6148 25.5614 -21.7980 -0.6903 5.3116 -14.7995 4.3274 7.8099 40.9226 6.6685 10.9363 17.5281 1.1007 5.0841 -0.4917 1.0558 -6.6793 -7.3132 -13.0786 -5.8844 27.4984 -5.2854 -3.7858 9.3530 0.0000 -0.0000 0.0000 18.1931 -3.2564 -68.7975 107.0611 -58.8711 74.7193 55.8964 52.8954 -17.2975 0.0 0.0 0.0 -7.1250 0.0 0.0 31.9525 56.0056 -9.2995 0.0000 -0.0000 0.0000 -22.1883 -48.3633 18.5418 -19.8426 -30.4522 -5.4513 -49.8668 -24.8068 -20.1939 0.0 0.0 0.0 7.1250 0.0 -0.0 -13.0390 0.9321 -13.1727
2.2478 10.2023 -1.9782 -4.4544 -7.1872 12.3346 0.0000 0.0000 0.0000 0.0224 -0.2233 -96.6789 32.9431 15.3796 130.9110 1.2511 -23.0936 -24.1668 0.8029 -5.7190 -15.9712 0.0000 0.0000 0.0000 15.0344 -44.0334 -93.3424 -34.9541 -13.4353 138.9793 -0.6159 25.6411 -21.8512 -0.6958 5.3321 -14.8583 4.2958 7.8017 40.9058 6.6697 10.9154 17.5386 1.1261 5.0732 -0.4808 1.1156 -6.6591 -7.3070 -13.1435 -5.8540 27.4775 -5.3141 -3.7727 9.3413 -0.0000 0.0000 0.0000 18.1916 -3.2897 -68.8189 107.0295 -58.8754 74.6923 55.9617 52.9425 -17.3356 0.0 0.0 0.0 -7.1250 0.0 0.0 32.0754 56.0795 -9.4005 -0.0000 0.0000 0.0000 -21.9297 -48.3276 18.3173 -19.9496 -30.5816 -5.5057 -49.7103 -23.9985 -20.0211 0.0 0.0 0.0 7.1250 0.0 -0.0 -12.9933 1.2289 -13.0541
